<svg xmlns="http://www.w3.org/2000/svg" width="40" height="40" viewBox="0 0 40 40">
  <g id="Facebook" transform="translate(-1269.5 -3765)">
    <g id="Group_65" data-name="Group 65" transform="translate(1271.5 3767)">
      <path id="Path_165" data-name="Path 165" d="M-1543.68,283.965h-3.417c-.013-.179-.033-.335-.034-.492q-.017-3.767-.03-7.534c0-.175-.015-.349-.025-.574h-2.835v-3.353c.924-.073,1.859,0,2.818-.049.013-.158.034-.288.034-.417,0-.688-.007-1.376,0-2.063a5.528,5.528,0,0,1,.306-1.849,3.625,3.625,0,0,1,2.938-2.464,7.531,7.531,0,0,1,1.472-.1c.7.008,1.4.065,2.139.1.069,1.016.03,1.993.045,2.994a3.243,3.243,0,0,1-.338.042c-.434,0-.867,0-1.3,0a4.417,4.417,0,0,0-.714.056,1.144,1.144,0,0,0-1.04,1.117c-.048.564-.026,1.135-.033,1.7,0,.28,0,.559,0,.9h3.321l-.43,3.378h-2.864c-.037.6-.01,1.167-.012,1.729s0,1.136,0,1.7,0,1.136,0,1.7,0,1.136,0,1.7S-1543.68,283.346-1543.68,283.965Z" transform="translate(1563.152 -255.881)" fill="#162641"/>
    </g>
    <g id="Ellipse_10" data-name="Ellipse 10" transform="translate(1269.5 3765)" fill="none" stroke="#162641" stroke-width="1">
      <circle cx="20" cy="20" r="20" stroke="none"/>
      <circle cx="20" cy="20" r="19.5" fill="none"/>
    </g>
  </g>
</svg>
