<svg xmlns="http://www.w3.org/2000/svg" width="79" height="48.852" viewBox="0 0 79 48.852">
  <g id="Group_32" data-name="Group 32" transform="translate(-72.035 -51)">
    <rect id="Rectangle_2" data-name="Rectangle 2" width="9.045" height="22.974" transform="translate(72.035 64.767)" fill="#da130b"/>
    <path id="Rectangle_3" data-name="Rectangle 3" d="M0,0H0A9.045,9.045,0,0,1,9.045,9.045V22.974a0,0,0,0,1,0,0H0a0,0,0,0,1,0,0V0A0,0,0,0,1,0,0Z" transform="translate(83.749 64.767)" fill="#da130b"/>
    <path id="Rectangle_4" data-name="Rectangle 4" d="M0,0H0A9.045,9.045,0,0,1,9.045,9.045V22.974a0,0,0,0,1,0,0H0a0,0,0,0,1,0,0V0A0,0,0,0,1,0,0Z" transform="translate(95.501 64.767)" fill="#da130b"/>
    <path id="Rectangle_5" data-name="Rectangle 5" d="M9.045,0h0a0,0,0,0,1,0,0V22.974a0,0,0,0,1,0,0H0a0,0,0,0,1,0,0V9.045A9.045,9.045,0,0,1,9.045,0Z" transform="translate(107.253 64.767)" fill="#da130b"/>
    <rect id="Rectangle_6" data-name="Rectangle 6" width="9.045" height="36.741" transform="translate(118.622 51)" fill="#da130b"/>
    <rect id="Rectangle_7" data-name="Rectangle 7" width="9.045" height="36.741" transform="translate(130.176 51)" fill="#da130b"/>
    <path id="Rectangle_8" data-name="Rectangle 8" d="M0,0H0A9.045,9.045,0,0,1,9.045,9.045V22.867a0,0,0,0,1,0,0H0a0,0,0,0,1,0,0V0A0,0,0,0,1,0,0Z" transform="translate(141.99 64.874)" fill="#da130b"/>
    <g id="Group_1" data-name="Group 1" transform="translate(72.111 93.331)">
      <path id="Path_1" data-name="Path 1" d="M78.085,109.372V104.4l-2.074,4.983h-.9l-2.1-5.023v5.013h-.886v-6.248h1.363l2.122,5.013,2.171-5.013h1.255v6.248Z" transform="translate(-72.128 -102.949)"/>
      <path id="Path_2" data-name="Path 2" d="M88.711,109.361c-.321-.01-.6-.02-.837-.02v-6.248c.5-.02,1.012-.029,1.567-.029a3.9,3.9,0,0,1,2.6.72,3.12,3.12,0,0,1,.866,2.433,3.059,3.059,0,0,1-.827,2.317,3.558,3.558,0,0,1-2.57.846C89.3,109.381,89.032,109.371,88.711,109.361Zm1-5.674c-.2,0-.5.01-.886.02v4.934h.964a1.912,1.912,0,0,0,1.6-.73,2.459,2.459,0,0,0,.506-1.587C91.894,104.563,91.164,103.687,89.713,103.687Z" transform="translate(-75.033 -102.938)"/>
      <path id="Path_3" data-name="Path 3" d="M104.708,109.377v-2.919H101.72v2.919h-.954v-6.229h.954v2.579h2.988v-2.579h.944v6.229Z" transform="translate(-77.412 -102.953)"/>
      <path id="Path_4" data-name="Path 4" d="M113.885,109.374v-6.238h.954v5.538H117.9v.7Z" transform="translate(-79.833 -102.951)"/>
      <path id="Path_5" data-name="Path 5" d="M126.9,103.849v1.879h2.7v.73l-2.7-.01v2.19l2.862-.01v.749h-3.816v-6.229h3.844v.7Z" transform="translate(-82.058 -102.953)"/>
      <path id="Path_6" data-name="Path 6" d="M142.652,108.739a5.876,5.876,0,0,1-1.071.487,4.21,4.21,0,0,1-1.226.166,2.67,2.67,0,0,1-2.19-1,3.647,3.647,0,0,1-.039-4.351,2.555,2.555,0,0,1,2.19-1.129,4.876,4.876,0,0,1,1.138.156,3.01,3.01,0,0,1,1.022.428l-.389.73a3.221,3.221,0,0,0-1.674-.555,1.754,1.754,0,0,0-1.577.944,3.165,3.165,0,0,0-.438,1.635,2.638,2.638,0,0,0,.555,1.7,1.7,1.7,0,0,0,1.372.681,3.1,3.1,0,0,0,1.382-.3V106.4H140.19v-.72h2.463Z" transform="translate(-84.176 -102.909)"/>
      <path id="Path_7" data-name="Path 7" d="M155.057,109.444l-.633-1.84h-2.4l-.623,1.84-.876-.1,2.278-6.365h.856l2.317,6.327Zm-1.84-5.46-.973,2.949h1.966Z" transform="translate(-86.593 -102.922)"/>
      <path id="Path_8" data-name="Path 8" d="M163.9,109.374v-6.238h.954v5.538h3.065v.7Z" transform="translate(-89.062 -102.951)"/>
    </g>
  </g>
</svg>
