<svg xmlns="http://www.w3.org/2000/svg" width="2345.754" height="495.834" viewBox="0 0 2345.754 495.834"><path d="M-2241.123,320.835c-115.532,0-230.7-1.461-342.311-4.341-108.553-2.8-214.613-6.968-315.234-12.384-98.8-5.317-192.9-11.867-279.682-19.468-86.152-7.544-165.437-16.155-235.65-25.592V35.968l1.62-.217V-175h2340.9V35.534l1.205.161,2.032.273V259.046c-28.334,3.809-58.412,7.517-89.4,11.022-69.337,7.844-145.634,14.964-226.772,21.165-81.921,6.26-169.491,11.637-260.279,15.98-92.466,4.424-189.235,7.822-287.622,10.1C-2033.272,319.65-2137.169,320.835-2241.123,320.835Z" transform="translate(3414 175)" fill="#b5cfef" opacity="0.2"/></svg>